HIERARCHY
ROOT joint_Root
{
	OFFSET 0.0 0.0 0.0
	CHANNELS 6 Xposition Yposition Zposition Zrotation Xrotation Yrotation 
	JOINT Hips
	{
		OFFSET -17.1583 93.1646 452.98
		CHANNELS 6 Xposition Yposition Zposition Zrotation Xrotation Yrotation 
		JOINT Spine
		{
			OFFSET 15.7357 0.0 0.0
			CHANNELS 6 Xposition Yposition Zposition Zrotation Xrotation Yrotation 
			JOINT Chest
			{
				OFFSET 8.98455 -0.406207 0.0
				CHANNELS 6 Xposition Yposition Zposition Zrotation Xrotation Yrotation 
				JOINT Neck
				{
					OFFSET 16.3773 0.0 0.0
					CHANNELS 6 Xposition Yposition Zposition Zrotation Xrotation Yrotation 
					JOINT Head
					{
						OFFSET 6.45672 0.0 0.0
						CHANNELS 6 Xposition Yposition Zposition Zrotation Xrotation Yrotation 
						End Site
						{
							OFFSET 0.0 0.0 0.0
						}
					}
				}
				JOINT Shoulder_L
				{
					OFFSET 12.9942 -0.242716 4.98039
					CHANNELS 6 Xposition Yposition Zposition Zrotation Xrotation Yrotation 
					JOINT UpperArm_L
					{
						OFFSET 5.34809 0.0 0.0
						CHANNELS 6 Xposition Yposition Zposition Zrotation Xrotation Yrotation 
						JOINT LowerArm_L
						{
							OFFSET 24.3286 1.87007e-05 0.0
							CHANNELS 6 Xposition Yposition Zposition Zrotation Xrotation Yrotation 
							JOINT Hand_L
							{
								OFFSET 22.2916 0.0 0.0
								CHANNELS 6 Xposition Yposition Zposition Zrotation Xrotation Yrotation 
								End Site
								{
									OFFSET 0.0 0.0 0.0
								}
							}
						}
					}
				}
				JOINT Shoulder_R
				{
					OFFSET 12.9945 -0.242716 -4.98039
					CHANNELS 6 Xposition Yposition Zposition Zrotation Xrotation Yrotation 
					JOINT UpperArm_R
					{
						OFFSET -5.34813 0.0 0.0
						CHANNELS 6 Xposition Yposition Zposition Zrotation Xrotation Yrotation 
						JOINT LowerArm_R
						{
							OFFSET -24.3289 0.000322201 0.0
							CHANNELS 6 Xposition Yposition Zposition Zrotation Xrotation Yrotation 
							JOINT Hand_R
							{
								OFFSET -22.2915 -0.000108084 0.0
								CHANNELS 6 Xposition Yposition Zposition Zrotation Xrotation Yrotation 
								End Site
								{
									OFFSET 0.0 0.0 0.0
								}
							}
						}
					}
				}
			}
		}
		JOINT UpperLeg_L
		{
			OFFSET -2.19248 -6.46944 0.0
			CHANNELS 6 Xposition Yposition Zposition Zrotation Xrotation Yrotation 
			JOINT LowerLeg_L
			{
				OFFSET 39.0811 0.0 -1.23785e-05
				CHANNELS 6 Xposition Yposition Zposition Zrotation Xrotation Yrotation 
				JOINT Foot_L
				{
					OFFSET 40.9854 0.0 -1.26872e-05
					CHANNELS 6 Xposition Yposition Zposition Zrotation Xrotation Yrotation 
					JOINT Toes_L
					{
						OFFSET 11.7543 0.0 0.0
						CHANNELS 6 Xposition Yposition Zposition Zrotation Xrotation Yrotation 
						End Site
						{
							OFFSET 0.0 0.0 0.0
						}
					}
				}
			}
		}
		JOINT UpperLeg_R
		{
			OFFSET -2.19251 6.46944 0.0
			CHANNELS 6 Xposition Yposition Zposition Zrotation Xrotation Yrotation 
			JOINT LowerLeg_R
			{
				OFFSET -39.0811 -0.00228153 -0.0401928
				CHANNELS 6 Xposition Yposition Zposition Zrotation Xrotation Yrotation 
				JOINT Foot_R
				{
					OFFSET -40.9854 0.0 0.0
					CHANNELS 6 Xposition Yposition Zposition Zrotation Xrotation Yrotation 
					JOINT Toes_R
					{
						OFFSET -11.7543 0.0 0.0
						CHANNELS 6 Xposition Yposition Zposition Zrotation Xrotation Yrotation 
						End Site
						{
							OFFSET 0.0 0.0 0.0
						}
					}
				}
			}
		}
	}
}
MOTION
Frames:	8
Frame Time:	0.0333333
0.000000 0.000000 0.000000 0.000000 0.000000 -0.000000 -1.149030 92.888200 0.432756 87.849300 -1.575160 2.707170 15.735700 0.000005 -0.000001 115.583000 86.689700 -114.039000 8.984550 -0.406207 -0.000000 -1.830080 2.728940 3.130240 16.377300 -0.000001 -0.000001 0.009857 0.890816 0.535332 6.456720 -0.000001 -0.000000 3.737030 0.501476 4.705260 12.994200 -0.242716 4.980390 -92.889000 8.688350 -71.527100 5.348090 -0.000007 -0.000001 -71.001700 21.950900 -0.799623 24.328600 0.000019 0.000005 9.602260 31.641600 -17.874000 22.291600 -0.000001 0.000005 -9.562050 5.263790 1.063870 12.994500 -0.242716 -4.980390 88.702700 4.834690 -74.959700 -5.348130 -0.000001 -0.000004 -71.550900 30.236100 -3.407320 -24.328900 0.000322 -0.000009 1.657760 5.792640 -16.009900 -22.291500 -0.000108 -0.000004 0.785719 5.279450 0.641348 -2.192480 -6.469440 -0.000000 -172.985000 -7.230530 0.836677 39.081100 -0.000007 -0.000012 0.021684 -0.070681 17.055300 40.985400 -0.000006 -0.000013 -0.838520 11.689200 -69.751300 11.754300 -0.000000 0.000003 -0.000441 0.174748 -9.488710 -2.192510 6.469440 -0.000001 178.182000 3.219090 -178.068000 -39.081100 -0.002282 -0.040193 0.042384 -0.154700 14.167700 -40.985400 0.000008 0.000006 -4.312000 4.871910 -69.226700 -11.754300 -0.000006 -0.000006 -0.010517 0.275130 -5.394530
0.000000 0.000000 0.000000 0.000000 0.000000 -0.000000 -1.186090 92.914400 0.419679 87.881000 -1.618060 2.369010 15.735700 0.000005 -0.000001 117.091000 86.730700 -115.343000 8.984550 -0.406207 -0.000000 -1.986320 2.828240 3.544700 16.377300 -0.000001 -0.000001 -0.291847 0.873356 1.198220 6.456720 -0.000001 -0.000000 3.137280 0.703527 5.070120 12.994200 -0.242716 4.980390 -93.014400 8.956550 -71.311900 5.348090 -0.000007 -0.000001 -68.747000 18.744300 -2.312950 24.328600 0.000019 0.000005 8.814190 33.565900 -15.666600 22.291600 -0.000001 0.000005 -12.443300 5.283240 0.535979 12.994500 -0.242716 -4.980390 88.720700 4.792650 -75.035800 -5.348130 -0.000001 -0.000004 -71.247600 29.463300 -3.155520 -24.328900 0.000322 -0.000009 1.742250 5.945260 -16.375000 -22.291500 -0.000108 -0.000004 0.638276 5.280400 0.615270 -2.192480 -6.469440 -0.000000 -173.024000 -7.395120 0.630511 39.081100 -0.000007 -0.000012 0.023051 -0.076361 16.797900 40.985400 -0.000006 -0.000013 -0.879186 11.765600 -69.693600 11.754300 -0.000000 0.000003 -0.000385 0.173868 -9.524480 -2.192510 6.469440 -0.000001 178.168000 3.300230 -178.355000 -39.081100 -0.002282 -0.040193 0.040568 -0.149289 14.005200 -40.985400 0.000008 0.000006 -4.401700 4.986130 -69.060900 -11.754300 -0.000006 -0.000006 -0.010185 0.272685 -5.494540
0.000000 0.000000 0.000000 0.000000 0.000000 -0.000000 -1.210950 92.950000 0.415377 87.917300 -1.686790 1.937990 15.735700 0.000005 -0.000001 118.287000 86.803200 -116.261000 8.984550 -0.406207 -0.000000 -2.184160 2.853200 4.105840 16.377300 -0.000001 -0.000001 -0.625020 0.932030 1.828140 6.456720 -0.000001 -0.000000 2.426540 1.063130 5.776650 12.994200 -0.242716 4.980390 -93.030500 8.911950 -71.132400 5.348090 -0.000007 -0.000001 -65.966000 15.274400 -4.060370 24.328600 0.000019 0.000005 7.632880 35.282600 -13.062600 22.291600 -0.000001 0.000005 -14.542600 5.293560 0.250746 12.994500 -0.242716 -4.980390 88.745400 4.705830 -75.053900 -5.348130 -0.000001 -0.000004 -70.785000 28.612100 -3.085520 -24.328900 0.000322 -0.000009 1.795210 6.053420 -16.561700 -22.291500 -0.000108 -0.000004 0.659145 5.286090 0.459080 -2.192480 -6.469440 -0.000000 -173.059000 -7.693240 0.395861 39.081100 -0.000007 -0.000012 0.022274 -0.075487 16.439700 40.985400 -0.000006 -0.000013 -0.912604 11.972800 -69.639200 11.754300 -0.000000 0.000003 -0.000612 0.177352 -9.382930 -2.192510 6.469440 -0.000001 178.137000 3.420410 -178.670000 -39.081100 -0.002282 -0.040193 0.038539 -0.144133 13.726400 -40.985400 0.000008 0.000006 -4.458680 5.148500 -68.908400 -11.754300 -0.000006 -0.000006 -0.010479 0.274850 -5.405970
0.000000 0.000000 0.000000 0.000000 0.000000 -0.000000 -1.252230 92.977200 0.410984 87.959200 -1.687480 1.495760 15.735700 0.000005 -0.000001 118.647000 86.908500 -116.274000 8.984550 -0.406207 -0.000000 -2.393530 2.753060 4.802390 16.377300 -0.000001 -0.000001 -0.982546 1.102870 2.422020 6.456720 -0.000001 -0.000000 1.697010 1.568370 6.940950 12.994200 -0.242716 4.980390 -92.944600 8.595970 -71.009000 5.348090 -0.000007 -0.000001 -62.568600 11.093800 -6.005380 24.328600 0.000019 0.000005 6.278610 37.126300 -10.330700 22.291600 -0.000001 0.000005 -15.878100 5.303130 -0.015162 12.994500 -0.242716 -4.980390 88.738200 4.727390 -75.036900 -5.348130 -0.000001 -0.000004 -70.011100 27.753700 -3.028330 -24.328900 0.000322 -0.000009 1.840050 6.101020 -16.827600 -22.291500 -0.000108 -0.000004 0.736980 5.284320 0.507751 -2.192480 -6.469440 -0.000000 -173.073000 -8.120270 0.106036 39.081100 -0.000007 -0.000012 0.021194 -0.073242 16.139200 40.985400 -0.000006 -0.000013 -0.924408 12.362100 -69.552600 11.754300 -0.000000 0.000003 -0.000520 0.175955 -9.439660 -2.192510 6.469440 -0.000001 178.137000 3.394580 -179.056000 -39.081100 -0.002282 -0.040193 0.037534 -0.141534 13.585000 -40.985400 0.000008 0.000006 -4.674170 5.142360 -68.797700 -11.754300 -0.000006 -0.000006 -0.010348 0.273888 -5.445330
0.000000 0.000000 0.000000 0.000000 0.000000 -0.000000 -1.283570 93.019300 0.394783 88.024300 -1.708850 0.941412 15.735700 0.000005 -0.000001 118.624000 87.048000 -115.829000 8.984550 -0.406207 -0.000000 -2.641350 2.573730 5.648440 16.377300 -0.000001 -0.000001 -1.487430 1.245570 3.103340 6.456720 -0.000001 -0.000000 1.116430 2.109050 8.174740 12.994200 -0.242716 4.980390 -92.753900 8.008370 -70.952100 5.348090 -0.000007 -0.000001 -58.655100 6.201650 -7.865010 24.328600 0.000019 0.000005 4.937460 38.380500 -7.921230 22.291600 -0.000001 0.000005 -16.510400 5.311740 -0.259061 12.994500 -0.242716 -4.980390 88.730300 4.743930 -74.997000 -5.348130 -0.000001 -0.000004 -69.098800 26.566900 -3.157740 -24.328900 0.000322 -0.000009 1.910870 6.322060 -16.864500 -22.291500 -0.000108 -0.000004 0.997933 5.280250 0.619529 -2.192480 -6.469440 -0.000000 -173.146000 -8.547440 -0.211845 39.081100 -0.000007 -0.000012 0.021008 -0.074861 15.675500 40.985400 -0.000006 -0.000013 -0.957443 12.705500 -69.428900 11.754300 -0.000000 0.000003 -0.000580 0.176871 -9.402450 -2.192510 6.469440 -0.000001 178.135000 3.275890 -179.488000 -39.081100 -0.002282 -0.040193 0.036380 -0.140029 13.279000 -40.985400 0.000008 0.000006 -4.730710 5.010870 -68.684200 -11.754300 -0.000006 -0.000006 -0.010830 0.277410 -5.301230
0.000000 0.000000 0.000000 0.000000 0.000000 -0.000000 -1.287160 93.052100 0.389160 88.166800 -1.658590 0.348331 15.735700 0.000005 -0.000001 118.427000 87.204600 -115.162000 8.984550 -0.406207 -0.000000 -2.909210 2.356470 6.589990 16.377300 -0.000001 -0.000001 -2.038280 1.382560 3.512530 6.456720 -0.000001 -0.000000 0.764352 2.394500 9.760700 12.994200 -0.242716 4.980390 -92.488300 7.164880 -70.791100 5.348090 -0.000007 -0.000001 -54.182900 0.732847 -10.177000 24.328600 0.000019 0.000005 3.269470 39.319300 -5.151470 22.291600 -0.000001 0.000005 -17.026100 5.320710 -0.515772 12.994500 -0.242716 -4.980390 88.737400 4.711080 -74.978100 -5.348130 -0.000001 -0.000004 -68.164200 25.032400 -3.274190 -24.328900 0.000322 -0.000009 2.024200 6.747670 -16.749700 -22.291500 -0.000108 -0.000004 1.452060 5.278340 0.671740 -2.192480 -6.469440 -0.000000 -173.351000 -8.840440 -0.590711 39.081100 -0.000007 -0.000012 0.022052 -0.080987 15.231900 40.985400 -0.000006 -0.000013 -0.964901 12.992500 -69.327200 11.754300 -0.000000 0.000003 -0.000459 0.175024 -9.477500 -2.192510 6.469440 -0.000001 178.033000 3.145130 179.965000 -39.081100 -0.002282 -0.040193 0.037002 -0.144165 13.145500 -40.985400 0.000008 0.000006 -4.923520 4.870920 -68.574900 -11.754300 -0.000006 -0.000006 -0.010295 0.273493 -5.461490
0.000000 0.000000 0.000000 0.000000 0.000000 -0.000000 -1.290700 93.098200 0.404236 88.330400 -1.506750 -0.119499 15.735700 0.000005 -0.000001 117.887000 87.329900 -114.101000 8.984550 -0.406207 -0.000000 -3.106320 2.137810 7.632340 16.377300 -0.000001 -0.000001 -2.432340 1.356650 4.080490 6.456720 -0.000001 -0.000000 0.405747 2.563000 10.941800 12.994200 -0.242716 4.980390 -92.151400 6.158660 -70.701800 5.348090 -0.000007 -0.000001 -49.014100 -4.351490 -12.662900 24.328600 0.000019 0.000005 1.958720 40.204400 -3.032750 22.291600 -0.000001 0.000005 -17.760000 5.310000 -0.209672 12.994500 -0.242716 -4.980390 88.775100 4.548430 -74.910600 -5.348130 -0.000001 -0.000004 -67.375700 23.049300 -3.365860 -24.328900 0.000322 -0.000009 2.083090 7.084770 -16.438800 -22.291500 -0.000108 -0.000004 1.843010 5.278090 0.678521 -2.192480 -6.469440 -0.000000 -173.543000 -9.105880 -0.749280 39.081100 -0.000007 -0.000012 0.020967 -0.080613 14.579700 40.985400 -0.000006 -0.000013 -1.005070 13.333500 -69.103700 11.754300 -0.000000 0.000003 -0.000450 0.174885 -9.483130 -2.192510 6.469440 -0.000001 177.916000 3.051820 179.680000 -39.081100 -0.002282 -0.040193 0.036287 -0.144928 12.809700 -40.985400 0.000008 0.000006 -4.974890 4.603640 -68.525900 -11.754300 -0.000006 -0.000006 -0.010833 0.277430 -5.300400
0.000000 0.000000 0.000000 0.000000 0.000000 -0.000000 -1.285680 93.117200 0.468643 88.490700 -1.257310 -0.375115 15.735700 0.000005 -0.000001 116.523000 87.390800 -112.154000 8.984550 -0.406207 -0.000000 -3.155540 1.913480 8.791890 16.377300 -0.000001 -0.000001 -2.708230 1.317530 4.590700 6.456720 -0.000001 -0.000000 0.032775 2.656740 11.981600 12.994200 -0.242716 4.980390 -91.772500 5.041420 -70.600700 5.348090 -0.000007 -0.000001 -43.575900 -9.723790 -15.278600 24.328600 0.000019 0.000005 1.239220 41.901600 -1.855090 22.291600 -0.000001 0.000005 -17.916200 5.293610 0.250944 12.994500 -0.242716 -4.980390 88.840500 4.298900 -74.890100 -5.348130 -0.000001 -0.000004 -66.485300 21.130300 -3.499240 -24.328900 0.000322 -0.000009 2.000340 7.015720 -15.966000 -22.291500 -0.000108 -0.000004 2.087290 5.274220 0.783701 -2.192480 -6.469440 -0.000000 -173.706000 -9.264570 -0.779508 39.081100 -0.000007 -0.000012 0.020996 -0.083382 14.134000 40.985400 -0.000006 -0.000013 -1.002910 13.715900 -68.938900 11.754300 -0.000000 0.000003 -0.000407 0.174214 -9.510410 -2.192510 6.469440 -0.000001 177.806000 3.194600 179.574000 -39.081100 -0.002282 -0.040193 0.037669 -0.153223 12.630500 -40.985400 0.000008 0.000006 -4.777670 4.396650 -68.518900 -11.754300 -0.000006 -0.000006 -0.010589 0.275655 -5.373050
